<svg xmlns="http://www.w3.org/2000/svg" data-name="Layer 1" width="143.41192" height="300.18907" viewBox="0 0 143.41192 300.18907" xmlns:xlink="http://www.w3.org/1999/xlink"><path d="M573.45937,440.621A62.14732,62.14732,0,0,1,636.348,355.33765C629.9696,391.91067,606.25253,425.06943,573.45937,440.621Z" transform="translate(-528.29404 -299.90546)" fill="#6541F3"/><path fill="#fcfcfc" d="M601.93279,460.40249a79.03759,79.03759,0,0,0-10.6111-14.087c.61424,1.18083,1.37533,2.91155,1.83335,3.89914a104.9431,104.9431,0,0,1,7.57552,26.57337c3.26194,21.569-.39085,49.85589-6.09038,74.63293-4.86377,18.052-13.64215,31.58242-24.15968,48.67366,13.79025-12.88092,27.259-26.72255,34.55661-44.449C616.90075,525.54971,618.73956,488.98682,601.93279,460.40249Z" transform="translate(-528.29404 -299.90546)"/><path fill="#fcfcfc" d="M664.08426,355.32361c-.6647-18.83132-15.18525-34.84295-34.35056-25.0776a35.407,35.407,0,0,0-8.75166,7.23c-6.15318-8.10228-15.29632-12.82093-26.704-8.41565-9.9853,3.893-17.7653,12.86248-21.64913,28.28424-11.78241-4.38482-24.33324,2.7722-30.89851,13.58154-3.68091,5.989-5.06888,12.93434-5.60127,19.85859-2.00612,21.21721,7.45789,42.93555,24.98637,55.24627,9.89392,7.68956,22.2098,3.68685,32.37241-1.23832-20.51642,4.148-26.6018.23932-36.22328-15.426-8.585-15.57094-9.21656-27.61563-4.21563-44.63282,1.28565-3.82884,5.21416-8.02183,8.55234-8.64216.1584-.0453.32211-.06655.48239-.10341.21511-.0075.42975-.03718.645-.033.15762.04687.34087.10217.57753.1745.179.09873.36836.20651.566.3243.30384.28791.59768.58534.87731.897.88855,1.30565,1.77148,2.61708,2.54928,3.99381,2.76845,4.2978,3.67528,10.26727,8.49063,12.86951a11.97009,11.97009,0,0,0,16.387-4.32546c2.55881-4.95969,2.09141-10.65968,1.8613-16.06083-.00656-.18324-.012-.3693-.01765-.55473.02468-1.47233.09623-2.94341.22651-4.41027.02937-.26.05218-.46521.07218-.6472a46.57393,46.57393,0,0,1,2.541-9.6899c.45068-.91449,1.21879-2.43025,1.96613-3.62186q.63408-.69336,1.32752-1.3244c.65813,1.24067,1.462,2.41947,2.46383,8.75026.1534,1.40532.41069,3.2132.64736,4.8769.2601,2.536.44412,5.10669,1.5734,7.39509a13.87471,13.87471,0,0,0,16.37452,8.2399c6.66525-1.71321,10.13121-8.40877,11.24971-14.87453.01593.32289.24557-.284.877-2.25966,3.66638-9.75254,1.03852-4.703,5.88121-12.72673.3971-.41835.803-.81466,1.16084-1.15209q.79482,1.35814,1.46827,2.78376c.06264.19324.12653.39007.21839.67923,4.53431,14.3873-2.12719,37.07246-12.047,56.98885-5.94978,12.40055-12.14545,21.90924-22.56721,28.81678a59.11272,59.11272,0,0,1-10.57018,5.50238,54.91119,54.91119,0,0,0,18.1157-5.5041c14.28217-7.2231,23.83022-20.69669,32.23915-33.85817C657.24374,391.87493,664.84159,373.9545,664.08426,355.32361Z" transform="translate(-528.29404 -299.90546)"/><path fill="#fcfcfc" d="M577.43553,518.20882c-4.98187-10.58079-10.201-21.93516-19.49508-29.38384,5.39663-5.62345,2.96482-17.16747-7.2998-17.45053-13.49452.33446-13.45922,20.10448.00032,20.47549a11.15832,11.15832,0,0,0,4.60164-1.06351c.5302.81169,1.04914,1.64807,1.552,2.53975,2.87374,5.0845,4.683,11.75366,6.73758,18.8196,2.0383,7.2784,4.39481,14.48869,5.68125,21.95079,2.47508,12.45039,4.649,37.28335,1.67244,62.83648C582.28431,572.80242,589.24543,543.4692,577.43553,518.20882Z" transform="translate(-528.29404 -299.90546)"/><circle fill="#fcfcfc" cx="7.56965" cy="39.03422" r="7.56965"/><circle fill="#fcfcfc" cx="93.51721" cy="7.56965" r="7.56965"/><circle fill="#fcfcfc" cx="135.84227" cy="138.84033" r="7.56965"/></svg>