<svg width="83" height="19" viewBox="0 0 83 19" fill="none" xmlns="http://www.w3.org/2000/svg">
<line x1="5" y1="2" x2="19" y2="2" stroke="#6541F3" stroke-width="2" stroke-linecap="round"/>
<line x1="5" y1="14" x2="19" y2="14" stroke="#6541F3" stroke-width="2" stroke-linecap="round"/>
<line x1="1" y1="8" x2="23" y2="8" stroke="#6541F3" stroke-width="2" stroke-linecap="round"/>
<path d="M38.7422 11.2578H40.8906C40.8333 12.0182 40.6224 12.6927 40.2578 13.2812C39.8932 13.8646 39.3854 14.3229 38.7344 14.6562C38.0833 14.9896 37.2943 15.1562 36.3672 15.1562C35.6536 15.1562 35.0104 15.0312 34.4375 14.7812C33.8698 14.526 33.3828 14.1641 32.9766 13.6953C32.5755 13.2214 32.2682 12.6536 32.0547 11.9922C31.8411 11.3255 31.7344 10.5781 31.7344 9.75V8.88281C31.7344 8.05469 31.8438 7.30729 32.0625 6.64062C32.2812 5.97396 32.5938 5.40625 33 4.9375C33.4115 4.46354 33.9036 4.09896 34.4766 3.84375C35.0547 3.58854 35.7005 3.46094 36.4141 3.46094C37.3411 3.46094 38.125 3.63281 38.7656 3.97656C39.4062 4.3151 39.9036 4.78125 40.2578 5.375C40.612 5.96875 40.8255 6.65104 40.8984 7.42188H38.75C38.7083 6.94271 38.6042 6.53646 38.4375 6.20312C38.276 5.86979 38.0312 5.61719 37.7031 5.44531C37.3802 5.26823 36.9505 5.17969 36.4141 5.17969C35.9974 5.17969 35.6302 5.25781 35.3125 5.41406C35 5.57031 34.7396 5.80469 34.5312 6.11719C34.3229 6.42448 34.1667 6.8099 34.0625 7.27344C33.9583 7.73177 33.9062 8.26302 33.9062 8.86719V9.75C33.9062 10.3281 33.9531 10.8464 34.0469 11.3047C34.1406 11.763 34.2865 12.151 34.4844 12.4688C34.6823 12.7865 34.9375 13.0286 35.25 13.1953C35.5625 13.362 35.9349 13.4453 36.3672 13.4453C36.8932 13.4453 37.3203 13.362 37.6484 13.1953C37.9818 13.0286 38.2344 12.7839 38.4062 12.4609C38.5833 12.138 38.6953 11.737 38.7422 11.2578ZM44.4219 3V15H42.3516V3H44.4219ZM44.0938 10.4688H43.4844C43.4844 9.88021 43.5625 9.33854 43.7188 8.84375C43.875 8.34896 44.0964 7.91927 44.3828 7.55469C44.6693 7.1849 45.0104 6.89844 45.4062 6.69531C45.8073 6.49219 46.25 6.39062 46.7344 6.39062C47.151 6.39062 47.5286 6.45052 47.8672 6.57031C48.2109 6.6849 48.5052 6.86979 48.75 7.125C48.9948 7.38021 49.1823 7.71354 49.3125 8.125C49.4479 8.53125 49.5156 9.02604 49.5156 9.60938V15H47.4375V9.59375C47.4375 9.20312 47.3802 8.89583 47.2656 8.67188C47.151 8.44271 46.987 8.27865 46.7734 8.17969C46.5651 8.08073 46.3073 8.03125 46 8.03125C45.6667 8.03125 45.3802 8.09635 45.1406 8.22656C44.901 8.35156 44.7031 8.52604 44.5469 8.75C44.3958 8.97396 44.2812 9.23177 44.2031 9.52344C44.1302 9.8151 44.0938 10.1302 44.0938 10.4688ZM55.9922 13.2031V9.30469C55.9922 9.01823 55.9427 8.77083 55.8438 8.5625C55.7448 8.35417 55.5938 8.19271 55.3906 8.07812C55.1875 7.96354 54.9297 7.90625 54.6172 7.90625C54.3411 7.90625 54.099 7.95312 53.8906 8.04688C53.6875 8.14062 53.5312 8.27344 53.4219 8.44531C53.3125 8.61198 53.2578 8.80469 53.2578 9.02344H51.1875C51.1875 8.67448 51.2708 8.34375 51.4375 8.03125C51.6042 7.71354 51.8411 7.43229 52.1484 7.1875C52.4609 6.9375 52.8333 6.74219 53.2656 6.60156C53.7031 6.46094 54.1927 6.39062 54.7344 6.39062C55.375 6.39062 55.9453 6.5 56.4453 6.71875C56.9505 6.93229 57.3464 7.25521 57.6328 7.6875C57.9245 8.11979 58.0703 8.66406 58.0703 9.32031V13.0078C58.0703 13.4297 58.0964 13.7917 58.1484 14.0938C58.2057 14.3906 58.2891 14.6484 58.3984 14.8672V15H56.2969C56.1979 14.7865 56.1224 14.5156 56.0703 14.1875C56.0182 13.8542 55.9922 13.526 55.9922 13.2031ZM56.2812 9.85156L56.2969 11.0781H54.9922C54.6693 11.0781 54.3854 11.112 54.1406 11.1797C53.8958 11.2422 53.6953 11.3359 53.5391 11.4609C53.3828 11.5807 53.2656 11.7266 53.1875 11.8984C53.1094 12.0651 53.0703 12.2552 53.0703 12.4688C53.0703 12.6771 53.1172 12.8646 53.2109 13.0312C53.3099 13.1979 53.4505 13.3307 53.6328 13.4297C53.8203 13.5234 54.0391 13.5703 54.2891 13.5703C54.6536 13.5703 54.9714 13.4974 55.2422 13.3516C55.513 13.2005 55.724 13.0182 55.875 12.8047C56.026 12.5911 56.1068 12.388 56.1172 12.1953L56.7109 13.0859C56.638 13.2995 56.5286 13.526 56.3828 13.7656C56.237 14.0052 56.0495 14.2292 55.8203 14.4375C55.5911 14.6458 55.3151 14.8177 54.9922 14.9531C54.6693 15.0885 54.2943 15.1562 53.8672 15.1562C53.3203 15.1562 52.8307 15.0469 52.3984 14.8281C51.9661 14.6094 51.625 14.3099 51.375 13.9297C51.125 13.5495 51 13.1172 51 12.6328C51 12.1849 51.0833 11.7891 51.25 11.4453C51.4167 11.1016 51.6641 10.8125 51.9922 10.5781C52.3203 10.3385 52.7266 10.1589 53.2109 10.0391C53.7005 9.91406 54.2604 9.85156 54.8906 9.85156H56.2812ZM63.9297 6.54688V8.03125H59.0859V6.54688H63.9297ZM60.3828 4.46875H62.4531V12.5625C62.4531 12.8125 62.487 13.0052 62.5547 13.1406C62.6224 13.276 62.724 13.3672 62.8594 13.4141C62.9948 13.4609 63.1562 13.4844 63.3438 13.4844C63.4792 13.4844 63.6042 13.4766 63.7188 13.4609C63.8333 13.4453 63.9297 13.4297 64.0078 13.4141L64.0156 14.9609C63.8438 15.0182 63.6484 15.0651 63.4297 15.1016C63.2161 15.138 62.974 15.1562 62.7031 15.1562C62.2396 15.1562 61.8333 15.0781 61.4844 14.9219C61.1354 14.7604 60.8646 14.5026 60.6719 14.1484C60.4792 13.7891 60.3828 13.3151 60.3828 12.7266V4.46875ZM67.4922 6.54688V15H65.4219V6.54688H67.4922ZM65.2812 4.33594C65.2812 4.02865 65.3854 3.77344 65.5938 3.57031C65.8073 3.36719 66.0938 3.26562 66.4531 3.26562C66.8125 3.26562 67.0964 3.36719 67.3047 3.57031C67.5182 3.77344 67.625 4.02865 67.625 4.33594C67.625 4.63802 67.5182 4.89062 67.3047 5.09375C67.0964 5.29688 66.8125 5.39844 66.4531 5.39844C66.0938 5.39844 65.8073 5.29688 65.5938 5.09375C65.3854 4.89062 65.2812 4.63802 65.2812 4.33594ZM72.1641 15H70.0859V5.76562C70.0859 5.13021 70.2083 4.59635 70.4531 4.16406C70.6979 3.72656 71.0469 3.39583 71.5 3.17188C71.9531 2.94792 72.487 2.83594 73.1016 2.83594C73.3047 2.83594 73.4974 2.84896 73.6797 2.875C73.8672 2.90104 74.0521 2.9375 74.2344 2.98438L74.1953 4.55469C74.0964 4.52865 73.987 4.51042 73.8672 4.5C73.7526 4.48958 73.625 4.48438 73.4844 4.48438C73.2031 4.48438 72.9635 4.53385 72.7656 4.63281C72.5677 4.73177 72.4167 4.8776 72.3125 5.07031C72.2135 5.25781 72.1641 5.48958 72.1641 5.76562V15ZM73.875 6.54688V8.03125H68.8125V6.54688H73.875ZM77.625 14.0625L79.8906 6.54688H82.1016L78.7109 16.2812C78.6328 16.4896 78.5312 16.7161 78.4062 16.9609C78.2865 17.2057 78.125 17.4375 77.9219 17.6562C77.7188 17.8802 77.4635 18.0625 77.1562 18.2031C76.8542 18.3438 76.487 18.4141 76.0547 18.4141C75.8672 18.4141 75.7005 18.401 75.5547 18.375C75.4089 18.349 75.2552 18.3151 75.0938 18.2734V16.7266C75.1458 16.7318 75.2057 16.7344 75.2734 16.7344C75.3464 16.7396 75.4089 16.7422 75.4609 16.7422C75.763 16.7422 76.013 16.7057 76.2109 16.6328C76.4089 16.5651 76.5677 16.4531 76.6875 16.2969C76.8125 16.1458 76.9167 15.9479 77 15.7031L77.625 14.0625ZM76.5078 6.54688L78.4219 12.7734L78.7578 14.9531L77.3359 15.2109L74.2812 6.54688H76.5078Z" fill="#ffffff"/>
</svg>
