<svg width="571" height="485" viewBox="0 0 571 485" fill="none" xmlns="http://www.w3.org/2000/svg">
<g clip-path="url(#clip0_41_85)">
<path d="M91.5283 59.812C60.5 77 46.6372 120.594 64.9465 151.109C95.9321 202.751 89.9015 273.952 50.6718 319.646C29.9015 343.839 30.77 382.477 49.3889 408.362C68.0078 434.247 101.343 447.35 133.182 445.62C165.021 443.889 195.123 428.716 219.003 407.586C231.095 396.887 223.849 375.447 210.258 366.73C196.668 358.012 179.654 357.348 163.955 353.579C148.255 349.809 131.464 340.299 128.928 324.354C114.883 236.01 123 63 91.5283 59.812Z" fill="#5C5C5C"/>
<path d="M325.309 251.778C321.798 248.743 317.283 247.123 312.643 247.234C306.618 247.513 301.743 251.89 298.663 256.786C296.066 261.263 294.554 266.285 294.247 271.451C292.277 278.379 292.598 286.072 297.158 291.882C300.382 296.621 306.728 296.402 311.714 295.17C320.186 292.92 325.117 284.408 327.951 276.681C330.554 268.686 331.64 258.317 325.309 251.778Z" fill="white"/>
<path d="M569.14 90.0554C567.315 76.5389 565.453 62.8922 561.116 49.9145C550.977 14.7467 511.137 4.386 478.763 1.4563C436.409 -3.07979 394.068 3.99317 352.061 8.84382C325.107 12.2479 298.073 15.0088 270.907 15.8888C242.442 17.6075 213.959 16.4227 185.472 16.584C171.93 16.5415 158.417 17.8361 144.88 17.7443C129.945 17.4537 114.398 15.6932 99.9179 14.035C93.3546 12.9584 86.7374 12.2408 80.0959 11.8855C82.904 11.2822 85.7081 10.7271 88.3059 10.1825C77.1047 10.1942 65.2002 9.70625 55.2861 15.7789C35.2135 26.9939 24.4725 51.5454 20.2961 73.2624C16.7812 94.2582 22.2395 115.321 28.3375 135.318C32.0161 147.873 35.7016 160.457 38.2076 173.308C40.6042 186.723 42.3247 212.236 39.8511 225.086C36.9033 246.719 25.1351 262.261 16.8971 284.181C4.34023 315.783 -3.81438 350.365 1.81249 384.388C5.01247 404.149 12.6613 422.925 24.1813 439.297C32.0895 451.015 43.2724 459.865 55.7111 466.397C72.8468 475.077 91.9073 478.753 110.768 481.517C126.72 483.839 142.869 484.202 158.965 484.225C173.379 484.118 187.819 483.94 202.187 482.7C228.362 480.565 251.674 474.858 279.205 468.289C311.669 460.777 343.906 452.182 375.264 440.849C385.782 436.876 396.037 432.242 405.97 426.975C416.164 421.197 426.023 414.837 435.814 408.406C450.576 398.421 465.265 388.186 478.314 375.996C494.661 360.411 509.944 343.453 521.238 323.788C532.629 303.935 539.863 282.043 547.909 260.7C554.941 241.466 559.78 221.523 563.761 201.458C568.155 179.264 570.925 156.766 570.557 134.112C570.466 119.428 570.744 104.67 569.14 90.0554ZM560.099 159.674C558.801 175.588 556.372 188.176 553.067 205.695C548.992 225.685 543.792 245.458 536.445 264.511C530.296 280.493 525.133 295.139 518.883 307.951C505.098 335.565 487.83 354.553 464.554 375.316C453.544 384.949 439.987 393.821 425.464 403.599C409.938 413.963 393.879 423.551 376.468 430.421C348.867 440.991 306.955 452.227 273.581 459.504C255.165 463.732 236.855 468.551 218.138 471.294C201.633 473.983 177.145 475.14 156.402 474.897C136.147 474.732 117.948 473.734 100.802 470.291C89.1638 468.23 77.5597 465.58 66.6042 461.064C58.1753 457.154 45.637 450.661 38.0896 441.745C23.7871 424.793 14.4809 404.197 11.2112 382.26C10.9995 380.66 10.7877 379.061 10.5758 377.461C10.1462 373.254 9.89251 369.033 9.84853 364.804C10.2201 352.948 10.9235 343.156 12.5445 334.608C15.4848 319.749 19.7106 305.173 25.1743 291.046C28.4216 281.482 34.2046 270.289 39.5897 258.088C44.3648 247.844 48.404 237.176 49.4565 225.841C49.3991 226.271 49.3414 226.701 49.2835 227.131C49.7819 223.163 49.5154 225.876 49.9244 222.158C50.6161 216.061 50.8781 209.923 50.7085 203.789C50.456 193.169 49.4387 182.581 47.6645 172.108C45.3218 158.405 41.4985 145.005 37.7568 131.632C28.827 102.479 25.8263 79.7963 36.9008 51.2892C40.7508 40.4151 50.1226 22.4825 65.0413 16.3707C69.0579 14.6369 73.2438 13.3252 77.5316 12.457C80.2893 12.9085 83.0239 13.5213 85.7463 14.1371C104.503 19.4076 123.451 24.4634 142.873 26.5486C159.34 28.1537 175.932 27.1409 192.451 27.3595C207.959 27.318 223.457 28.0299 238.965 28.0136C260.658 27.6817 282.364 26.989 304.002 25.354C353.993 21.2411 403.492 11.0237 453.759 10.5655C483.074 11.3207 509.999 13.0652 533.719 27.8946C545.976 35.7945 552.042 48.2547 555.775 67.1026C559.16 82.776 560.832 98.7709 560.76 114.806C560.954 129.76 561.008 144.74 560.099 159.674Z" fill="#111111"/>
<path d="M296.398 181.5C289.684 168.739 277.384 160.119 265.361 152.756C265.147 152.627 264.939 152.49 264.726 152.361C267.18 141.119 268.351 129.61 266.518 118.157C264.427 101.792 259.166 84.1579 245.739 73.5499C234.337 66.2934 219.769 64.5772 206.767 67.9221C196.479 70.8558 187.53 77.3128 180.053 84.9183C169.173 86.7581 158.264 89.5746 149.489 96.4823C142.167 102.501 136.198 109.999 131.974 118.484C126.568 115.829 121.163 112.9 115.112 112.732C111.121 112.864 107.327 114.498 104.489 117.308C101.651 120.118 99.9789 123.895 99.8074 127.885C99.486 140.149 110.315 149.082 121.47 155.227C120.766 160.973 120.385 166.716 120.251 172.318C120.199 189.089 126.236 205.308 137.24 217.963C142.741 223.662 148.985 228.594 155.803 232.624C166.82 238.838 180.289 238.477 192.325 235.862C204.703 232.266 216.778 226.853 226.973 218.881C232.164 214.353 236.934 209.364 241.225 203.976C253.658 210.37 268.749 218.212 282.089 215.248C297.21 210.436 303.932 195.796 296.398 181.5ZM123.35 143.726C114.932 139.442 104.954 132.005 108.409 123.817C109.106 121.254 111.579 119.261 114.775 117.957C118.328 116.737 122.116 117.715 125.679 118.4C127.594 118.795 129.509 119.19 131.424 119.586C127.73 127.262 125.017 135.372 123.35 143.726V143.726ZM173.807 226.625C167.181 226.211 164.049 225.363 156.443 220.08C160.498 213.363 154.907 231.277 159.831 227.825C159.599 228.432 168.568 230.949 168.831 230.825C172.274 229.762 173.273 229.526 177.831 229.825C183.04 230.214 195.155 208.112 202.126 219.208C202.418 219.644 202.693 220.092 202.973 220.536C201.685 221.109 200.438 221.635 199.256 222.096C188.564 226.074 184.384 227.047 173.807 226.625H173.807ZM219.287 211.293L219.267 211.308C214.254 214.799 208.934 217.828 203.374 220.36C202.962 217.922 202.316 215.53 201.443 213.216C199.319 207.974 195.896 203.359 191.496 199.806C185.694 194.895 177.564 192.349 170.144 194.684C160.249 198.258 157.607 209.818 155.522 219.438C146.757 213.563 139.94 205.21 135.943 195.445C133.286 189.004 131.801 182.141 131.558 175.178C131.513 170.247 131.733 165.318 132.218 160.41C132.848 160.681 133.471 160.944 134.074 161.194C167.245 176.108 202.264 184.516 231.457 198.993C227.812 203.481 223.735 207.6 219.287 211.293H219.287ZM150.721 154.333C156.742 146.088 152.812 155.541 160.831 161.825C165.585 165.911 180.319 153.397 181.17 158.737C181.43 161.056 181.545 163.389 181.516 165.722C180.3 165.286 179.084 164.854 177.872 164.409C168.834 161.019 159.775 157.681 150.721 154.333H150.721ZM239.748 187.746C233.933 184.995 229.013 182.83 221.862 180.055C209.091 175.05 196.017 170.879 183.094 166.291C186.148 157.991 185.638 147.713 182.072 141.727C178.555 134.905 169.353 131.671 162.69 135.916C156.029 139.754 152.732 147.172 150.415 154.219C144.842 152.158 139.267 150.102 133.709 148.003C136.005 132.922 141.595 111.2 155.845 98.8052C162.195 93.3962 170.093 89.8502 178.15 86.9073C177.54 87.5653 176.938 88.2279 176.349 88.898C175.871 89.4468 175.407 90.0093 174.933 90.5603C176.82 88.9347 178.608 87.4814 180.465 86.0807C182.667 85.307 184.871 84.5596 187.05 83.8339C185.585 84.0464 184.113 84.2679 182.633 84.4985C183.218 84.0862 183.798 83.6746 184.415 83.2633C195.311 76.4813 204.181 72.6458 216.512 73.3733C221.759 73.3923 226.263 74.6743 232.865 77.2935C233.66 77.6516 235.027 78.2704 235.514 78.5212C236.86 79.1974 238.145 79.9866 239.357 80.8804C248.184 89.1023 252.143 100.478 255.124 116.189C256.274 122.588 256.689 129.098 256.362 135.592C256.242 138.117 255.984 140.634 255.588 143.131C255.652 142.65 255.717 142.168 255.782 141.687C255.529 143.153 255.252 144.643 254.956 146.143C254.62 145.922 254.28 145.705 253.945 145.483C254.258 145.811 254.582 146.128 254.896 146.455C252.618 157.929 249.169 169.975 245.633 177.011C243.886 180.703 241.921 184.288 239.748 187.746H239.748ZM286.524 197.65C284.312 202.024 277.977 203.524 276.11 202.888C264.329 199.88 261.963 198.173 252.035 193.676C251.103 193.224 250.218 192.795 249.356 192.376C255.105 183.047 259.447 172.921 262.242 162.324C262.872 160.055 263.463 157.771 264.014 155.472C264.143 155.593 264.268 155.72 264.398 155.841C280.339 170.228 292.735 188.598 286.524 197.65H286.524Z" fill="#111111"/>
<path d="M231.746 106.021C229.762 101.858 225.928 97.9864 221.21 97.3211C219.205 97.1676 217.192 97.4611 215.314 98.1803C217.45 98.0434 219.586 98.4519 221.52 99.3674C228.494 104.11 228.447 113.068 225.842 118.207C221.598 126.772 213.889 127.885 207.767 127.086C206.755 127.223 202.558 123.763 201.856 119.971C200.479 113.727 209.326 107.346 214.312 102.413C207.392 105.925 198.088 109.272 196.102 117.652C194.887 123.924 198.331 130.719 203.705 134.003C206.981 135.413 210.554 135.996 214.109 135.7C217.664 135.403 221.091 134.237 224.089 132.304C232.511 126.916 236.166 115.084 231.746 106.021Z" fill="#111111"/>
<path d="M397.595 72.0946C389.696 72.2903 389.716 83.8624 397.595 84.0797C405.494 83.8838 405.473 72.3117 397.595 72.0946Z" fill="#111111"/>
<path d="M345.952 131.483C338.053 131.679 338.074 143.251 345.952 143.468C353.851 143.273 353.831 131.7 345.952 131.483Z" fill="#111111"/>
<path d="M472.476 149.558C464.577 149.754 464.598 161.326 472.476 161.543C480.375 161.347 480.355 149.775 472.476 149.558Z" fill="#111111"/>
<path d="M113.561 407.77C105.663 407.966 105.683 419.538 113.562 419.755C121.461 419.559 121.44 407.987 113.561 407.77Z" fill="#111111"/>
<path d="M211.682 296.739C203.783 296.935 203.804 308.507 211.682 308.724C219.581 308.528 219.561 296.956 211.682 296.739Z" fill="#111111"/>
<path d="M392.43 325.142C384.531 325.338 384.552 336.91 392.431 337.127C400.33 336.931 400.309 325.359 392.43 325.142Z" fill="#111111"/>
<path d="M95.4866 283.828C87.5877 284.024 87.6083 295.596 95.4868 295.813C103.386 295.618 103.365 284.045 95.4866 283.828Z" fill="#111111"/>
<path d="M384.684 208.947C376.785 209.143 376.806 220.715 384.684 220.932C392.583 220.736 392.563 209.164 384.684 208.947Z" fill="#111111"/>
<path d="M276.235 381.949C268.336 382.145 268.357 393.717 276.235 393.934C284.134 393.738 284.114 382.166 276.235 381.949Z" fill="#111111"/>
<path d="M339.294 265.251C333.065 257.332 322.415 250.446 312.045 253.555C307.093 254.978 303.796 259.191 301.321 263.475C300.633 264.646 299.99 265.843 299.375 267.054C299.821 266.569 300.272 266.089 300.718 265.606C308.008 257.505 314.981 255.634 322.41 261.106C327.423 265.116 331.72 269.675 332.889 277.016C333.482 281.256 333.103 285.576 331.779 289.647C331.678 289.963 331.576 290.253 331.482 290.512C329.392 294.432 330.159 293.333 326.509 296.577C321.761 299.688 322.079 299.179 317.682 300.954C314.336 302.098 314.129 301.916 313.32 301.942C313.004 301.939 312.689 301.918 312.375 301.888C311.946 301.821 310.666 301.625 310.003 301.453C307.045 300.914 302.994 297.078 300.684 290.348C300.095 287.399 300.816 282.761 301.976 278.915C303.721 274.09 306.366 269.649 308.604 265.046C301.888 272.356 294.527 280.454 294.234 290.94C294.7 297.668 297.703 303.968 302.635 308.568C305.827 310.962 309.609 312.445 313.577 312.857C324.669 312.967 337.318 307.292 342.552 297.119C346.971 286.997 345.874 274.206 339.294 265.251Z" fill="#111111"/>
<path d="M498.248 67.9941C496.464 66.7537 494.434 65.9117 492.297 65.5253C490.159 65.1388 487.963 65.217 485.858 65.7544C482.306 66.8992 479.895 69.8017 477.918 72.8817C473.268 77.8086 469.253 84.1568 473.712 90.3187C479.739 97.093 491.48 96.1977 497.686 90.0905C503.842 84.5625 506.055 73.0748 498.248 67.9941ZM494.3 80.2882C492.987 83.3765 487.102 89.7814 479.564 87.3213C477.736 86.8265 477.001 86.1425 476.336 84.0248C475.758 80.12 477.761 76.3893 479.747 72.8228C483.934 69.741 488.189 68.5098 492.711 72.1249C495.694 75.2229 495.903 75.1276 494.3 80.2882Z" fill="#111111"/>
<path d="M201.712 370.804C199.732 370.46 197.707 370.455 195.725 370.79C197.057 371.088 198.353 371.529 199.591 372.106C201.42 372.831 202.987 374.093 204.085 375.726C205.184 377.358 205.762 379.285 205.744 381.253C205.231 388.587 200.181 392.141 195.53 393.422C193.053 394.06 187.631 394.378 185.16 393.599C184.482 393.201 182.354 391.996 182.127 391.388C182.747 392.259 181.787 390.888 181.645 390.507C181.443 389.895 180.566 387.062 180.818 385.789C181.422 380.999 187.607 375.486 191.771 371.351C185.608 374.298 178.472 377.17 175.506 383.822C174.266 387.079 174.198 390.667 175.314 393.968C176.601 397.114 178.981 399.689 182.017 401.217C186.882 403.334 192.656 403.197 197.732 401.913C203.675 399.978 208.804 395.577 210.784 389.547C213.776 382.139 210.137 372.229 201.712 370.804Z" fill="#111111"/>
<path d="M85.1581 77.2587C77.2592 77.4543 77.2798 89.0265 85.1583 89.2437C93.0573 89.0481 93.0367 77.4759 85.1581 77.2587Z" fill="#111111"/>
</g>
<defs>
<clipPath id="clip0_41_85">
<rect width="570.59" height="484.225" fill="white"/>
</clipPath>
</defs>
</svg>
