<svg width="16" height="19" viewBox="0 0 16 19" fill="none" xmlns="http://www.w3.org/2000/svg">
<path d="M3.12907 5C3.12907 2.23858 5.30446 0 7.98794 0C10.6714 0 12.8468 2.23858 12.8468 5C12.8468 7.76142 10.6714 10 7.98794 10C5.30446 10 3.12907 7.76142 3.12907 5ZM7.98794 8C9.59803 8 10.9033 6.65685 10.9033 5C10.9033 3.34315 9.59803 2 7.98794 2C6.37785 2 5.07262 3.34315 5.07262 5C5.07262 6.65685 6.37785 8 7.98794 8Z" fill="#CFCFCF"/>
<path d="M2.49075 13.3431C1.03281 14.8434 0.213745 16.8783 0.213745 19H2.15729C2.15729 17.4087 2.77159 15.8826 3.86505 14.7574C4.95851 13.6321 6.44156 13 7.98794 13C9.53432 13 11.0174 13.6321 12.1108 14.7574C13.2043 15.8826 13.8186 17.4087 13.8186 19H15.7621C15.7621 16.8783 14.9431 14.8434 13.4851 13.3431C12.0272 11.8429 10.0498 11 7.98794 11C5.92609 11 3.9487 11.8429 2.49075 13.3431Z" fill="#CFCFCF"/>
</svg>
